<?xml version="1.0" encoding="UTF-8" standalone="no"?>
<!DOCTYPE svg PUBLIC "-//W3C//DTD SVG 1.1//EN"
 "http://www.w3.org/Graphics/SVG/1.1/DTD/svg11.dtd">
<!-- Generated by graphviz version 2.43.0 (0)
 -->
<!-- Title: G Pages: 1 -->
<svg width="403pt" height="837pt"
 viewBox="0.00 0.00 403.00 837.00" xmlns="http://www.w3.org/2000/svg" xmlns:xlink="http://www.w3.org/1999/xlink">
<g id="graph0" class="graph" transform="scale(1 1) rotate(0) translate(18 819)">
<title>G</title>
<polygon fill="white" stroke="transparent" points="-18,18 -18,-819 385,-819 385,18 -18,18"/>
<!-- human -->
<g id="node1" class="node">
<title>human</title>
<path fill="#dbeafe" stroke="#2563eb" stroke-width="1.6" d="M234.5,-801C234.5,-801 27.5,-801 27.5,-801 21.5,-801 15.5,-795 15.5,-789 15.5,-789 15.5,-744 15.5,-744 15.5,-738 21.5,-732 27.5,-732 27.5,-732 234.5,-732 234.5,-732 240.5,-732 246.5,-738 246.5,-744 246.5,-744 246.5,-789 246.5,-789 246.5,-795 240.5,-801 234.5,-801"/>
<text text-anchor="middle" x="131" y="-780" font-family="DejaVu Sans" font-size="15.00">Domain Expert Manager</text>
<text text-anchor="middle" x="131" y="-763" font-family="DejaVu Sans" font-size="15.00">states operational problem,</text>
<text text-anchor="middle" x="131" y="-746" font-family="DejaVu Sans" font-size="15.00">risk, release criteria</text>
</g>
<!-- strategic -->
<g id="node2" class="node">
<title>strategic</title>
<path fill="#ede9fe" stroke="#7c3aed" stroke-width="1.6" d="M220.5,-679C220.5,-679 41.5,-679 41.5,-679 35.5,-679 29.5,-673 29.5,-667 29.5,-667 29.5,-622 29.5,-622 29.5,-616 35.5,-610 41.5,-610 41.5,-610 220.5,-610 220.5,-610 226.5,-610 232.5,-616 232.5,-622 232.5,-622 232.5,-667 232.5,-667 232.5,-673 226.5,-679 220.5,-679"/>
<text text-anchor="middle" x="131" y="-658" font-family="DejaVu Sans" font-size="15.00">Strategic Model</text>
<text text-anchor="middle" x="131" y="-641" font-family="DejaVu Sans" font-size="15.00">asks architecture, tools,</text>
<text text-anchor="middle" x="131" y="-624" font-family="DejaVu Sans" font-size="15.00">boundaries, non&#45;goals</text>
</g>
<!-- human&#45;&gt;strategic -->
<g id="edge1" class="edge">
<title>human&#45;&gt;strategic</title>
<path fill="none" stroke="#334155" d="M128.52,-731.68C128.01,-721.21 127.7,-709.63 128,-699 128.11,-695.19 128.26,-691.23 128.43,-687.26"/>
<polygon fill="#334155" stroke="#334155" points="131.23,-687.29 128.82,-679.16 125.64,-687.02 131.23,-687.29"/>
<text text-anchor="middle" x="181" y="-702.4" font-family="DejaVu Sans" font-size="12.00">domain questions</text>
</g>
<!-- strategic&#45;&gt;human -->
<g id="edge8" class="edge">
<title>strategic&#45;&gt;human</title>
<path fill="none" stroke="#334155" stroke-dasharray="5,2" d="M231.12,-679.18C241.7,-688.1 246.05,-698.98 238,-712 234.77,-717.22 230.86,-721.95 226.47,-726.23"/>
<polygon fill="#334155" stroke="#334155" points="224.33,-724.39 220.21,-731.8 228.05,-728.58 224.33,-724.39"/>
<text text-anchor="middle" x="282.5" y="-702.4" font-family="DejaVu Sans" font-size="12.00">decision brief</text>
</g>
<!-- decisions -->
<g id="node3" class="node">
<title>decisions</title>
<path fill="#fef3c7" stroke="#b45309" stroke-width="1.6" d="M226,-557C226,-557 36,-557 36,-557 30,-557 24,-551 24,-545 24,-545 24,-500 24,-500 24,-494 30,-488 36,-488 36,-488 226,-488 226,-488 232,-488 238,-494 238,-500 238,-500 238,-545 238,-545 238,-551 232,-557 226,-557"/>
<text text-anchor="middle" x="131" y="-536" font-family="DejaVu Sans" font-size="15.00">Discovery Decisions</text>
<text text-anchor="middle" x="131" y="-519" font-family="DejaVu Sans" font-size="15.00">product category, stack,</text>
<text text-anchor="middle" x="131" y="-502" font-family="DejaVu Sans" font-size="15.00">data model, test strategy</text>
</g>
<!-- strategic&#45;&gt;decisions -->
<g id="edge2" class="edge">
<title>strategic&#45;&gt;decisions</title>
<path fill="none" stroke="#334155" d="M131,-609.75C131,-596.08 131,-580.14 131,-565.7"/>
<polygon fill="#334155" stroke="#334155" points="133.8,-565.41 131,-557.41 128.2,-565.41 133.8,-565.41"/>
<text text-anchor="middle" x="192" y="-580.4" font-family="DejaVu Sans" font-size="12.00">technical translation</text>
</g>
<!-- constitution -->
<g id="node4" class="node">
<title>constitution</title>
<path fill="#dcfce7" stroke="#15803d" stroke-width="1.6" d="M231,-435C231,-435 31,-435 31,-435 25,-435 19,-429 19,-423 19,-423 19,-378 19,-378 19,-372 25,-366 31,-366 31,-366 231,-366 231,-366 237,-366 243,-372 243,-378 243,-378 243,-423 243,-423 243,-429 237,-435 231,-435"/>
<text text-anchor="middle" x="131" y="-414" font-family="DejaVu Sans" font-size="15.00">Project Constitution</text>
<text text-anchor="middle" x="131" y="-397" font-family="DejaVu Sans" font-size="15.00">AGENTS.md, schema docs,</text>
<text text-anchor="middle" x="131" y="-380" font-family="DejaVu Sans" font-size="15.00">compatibility matrix</text>
</g>
<!-- decisions&#45;&gt;constitution -->
<g id="edge3" class="edge">
<title>decisions&#45;&gt;constitution</title>
<path fill="none" stroke="#334155" d="M131,-487.75C131,-474.08 131,-458.14 131,-443.7"/>
<polygon fill="#334155" stroke="#334155" points="133.8,-443.41 131,-435.41 128.2,-443.41 133.8,-443.41"/>
<text text-anchor="middle" x="173" y="-458.4" font-family="DejaVu Sans" font-size="12.00">make durable</text>
</g>
<!-- workorders -->
<g id="node5" class="node">
<title>workorders</title>
<path fill="#e0f2fe" stroke="#0369a1" stroke-width="1.6" d="M218,-313C218,-313 44,-313 44,-313 38,-313 32,-307 32,-301 32,-301 32,-256 32,-256 32,-250 38,-244 44,-244 44,-244 218,-244 218,-244 224,-244 230,-250 230,-256 230,-256 230,-301 230,-301 230,-307 224,-313 218,-313"/>
<text text-anchor="middle" x="131" y="-292" font-family="DejaVu Sans" font-size="15.00">PR&#45;Sized Work Orders</text>
<text text-anchor="middle" x="131" y="-275" font-family="DejaVu Sans" font-size="15.00">current state, goal,</text>
<text text-anchor="middle" x="131" y="-258" font-family="DejaVu Sans" font-size="15.00">non&#45;goals, tests, report</text>
</g>
<!-- constitution&#45;&gt;workorders -->
<g id="edge4" class="edge">
<title>constitution&#45;&gt;workorders</title>
<path fill="none" stroke="#334155" d="M131,-365.75C131,-352.08 131,-336.14 131,-321.7"/>
<polygon fill="#334155" stroke="#334155" points="133.8,-321.41 131,-313.41 128.2,-321.41 133.8,-321.41"/>
<text text-anchor="middle" x="144.5" y="-336.4" font-family="DejaVu Sans" font-size="12.00">slice</text>
</g>
<!-- executor -->
<g id="node6" class="node">
<title>executor</title>
<path fill="#fee2e2" stroke="#b91c1c" stroke-width="1.6" d="M250,-191C250,-191 12,-191 12,-191 6,-191 0,-185 0,-179 0,-179 0,-134 0,-134 0,-128 6,-122 12,-122 12,-122 250,-122 250,-122 256,-122 262,-128 262,-134 262,-134 262,-179 262,-179 262,-185 256,-191 250,-191"/>
<text text-anchor="middle" x="131" y="-170" font-family="DejaVu Sans" font-size="15.00">Execution Agent</text>
<text text-anchor="middle" x="131" y="-153" font-family="DejaVu Sans" font-size="15.00">implements inside bounded VM</text>
<text text-anchor="middle" x="131" y="-136" font-family="DejaVu Sans" font-size="15.00">and reports evidence</text>
</g>
<!-- workorders&#45;&gt;executor -->
<g id="edge5" class="edge">
<title>workorders&#45;&gt;executor</title>
<path fill="none" stroke="#334155" d="M131,-243.75C131,-230.08 131,-214.14 131,-199.7"/>
<polygon fill="#334155" stroke="#334155" points="133.8,-199.41 131,-191.41 128.2,-199.41 133.8,-199.41"/>
<text text-anchor="middle" x="157.5" y="-214.4" font-family="DejaVu Sans" font-size="12.00">delegate</text>
</g>
<!-- repo -->
<g id="node7" class="node">
<title>repo</title>
<path fill="#f8fafc" stroke="#475569" stroke-width="1.6" d="M205,-69C205,-69 57,-69 57,-69 51,-69 45,-63 45,-57 45,-57 45,-12 45,-12 45,-6 51,0 57,0 57,0 205,0 205,0 211,0 217,-6 217,-12 217,-12 217,-57 217,-57 217,-63 211,-69 205,-69"/>
<text text-anchor="middle" x="131" y="-48" font-family="DejaVu Sans" font-size="15.00">Repository Truth</text>
<text text-anchor="middle" x="131" y="-31" font-family="DejaVu Sans" font-size="15.00">commits, PRs, docs,</text>
<text text-anchor="middle" x="131" y="-14" font-family="DejaVu Sans" font-size="15.00">CI, review evidence</text>
</g>
<!-- executor&#45;&gt;repo -->
<g id="edge6" class="edge">
<title>executor&#45;&gt;repo</title>
<path fill="none" stroke="#334155" d="M131,-121.75C131,-108.08 131,-92.14 131,-77.7"/>
<polygon fill="#334155" stroke="#334155" points="133.8,-77.41 131,-69.41 128.2,-77.41 133.8,-77.41"/>
<text text-anchor="middle" x="181.5" y="-92.4" font-family="DejaVu Sans" font-size="12.00">code + evidence</text>
</g>
<!-- repo&#45;&gt;strategic -->
<g id="edge7" class="edge">
<title>repo&#45;&gt;strategic</title>
<path fill="none" stroke="#334155" stroke-dasharray="5,2" d="M217.28,-64.12C242.34,-77.31 266.14,-96 278,-122 290.72,-149.9 278.69,-160.34 278,-191 274,-368.47 361.89,-444.64 260,-590 254.4,-597.99 247.38,-604.79 239.51,-610.57"/>
<polygon fill="#334155" stroke="#334155" points="237.75,-608.38 232.72,-615.2 240.91,-613.01 237.75,-608.38"/>
<text text-anchor="middle" x="330.5" y="-336.4" font-family="DejaVu Sans" font-size="12.00">review truth</text>
</g>
</g>
</svg>
