<svg xmlns="http://www.w3.org/2000/svg" width="900" height="420" viewBox="0 0 900 420" role="img" aria-labelledby="title desc">
  <title id="title">Tipi motenj v podatkovni matriki</title>
  <desc id="desc">Shema prikazuje regularne celice, manjkajoče vrednosti, celične osamelce in vrstične osamelce.</desc>
  <rect width="900" height="420" fill="#f7f3ea"/>
  <text x="52" y="44" font-family="Georgia, serif" font-size="28" fill="#24312f">Podatkovna matrika z različnimi motnjami</text>
  <g transform="translate(60 82)">
    <rect x="0" y="0" width="520" height="260" fill="#fffdf7" stroke="#24312f" stroke-width="2"/>
    <g stroke="#d4cbb8" stroke-width="1">
      <path d="M52 0V260M104 0V260M156 0V260M208 0V260M260 0V260M312 0V260M364 0V260M416 0V260M468 0V260"/>
      <path d="M0 26H520M0 52H520M0 78H520M0 104H520M0 130H520M0 156H520M0 182H520M0 208H520M0 234H520"/>
    </g>
    <g fill="#e7dfcf">
      <rect x="1" y="1" width="50" height="24"/><rect x="53" y="1" width="50" height="24"/><rect x="105" y="1" width="50" height="24"/>
      <rect x="157" y="1" width="50" height="24"/><rect x="209" y="1" width="50" height="24"/><rect x="261" y="1" width="50" height="24"/>
      <rect x="313" y="1" width="50" height="24"/><rect x="365" y="1" width="50" height="24"/><rect x="417" y="1" width="50" height="24"/><rect x="469" y="1" width="50" height="24"/>
    </g>
    <rect x="1" y="78" width="518" height="24" fill="#2f4f4a" opacity="0.88"/>
    <rect x="1" y="182" width="518" height="24" fill="#2f4f4a" opacity="0.88"/>
    <rect x="209" y="53" width="50" height="24" fill="#c43c2f"/>
    <rect x="365" y="131" width="50" height="24" fill="#c43c2f"/>
    <rect x="105" y="209" width="50" height="24" fill="#c43c2f"/>
    <rect x="313" y="27" width="50" height="24" fill="#fffdf7" stroke="#1f6f8b" stroke-width="4" stroke-dasharray="6 4"/>
    <rect x="469" y="157" width="50" height="24" fill="#fffdf7" stroke="#1f6f8b" stroke-width="4" stroke-dasharray="6 4"/>
  </g>
  <g font-family="Arial, sans-serif" font-size="18" fill="#24312f">
    <rect x="640" y="96" width="28" height="18" fill="#e7dfcf"/><text x="680" y="111">regularna celica</text>
    <rect x="640" y="136" width="28" height="18" fill="#fffdf7" stroke="#1f6f8b" stroke-width="4" stroke-dasharray="6 4"/><text x="680" y="153">manjkajoča vrednost</text>
    <rect x="640" y="178" width="28" height="18" fill="#c43c2f"/><text x="680" y="195">celični osamelec</text>
    <rect x="640" y="220" width="28" height="18" fill="#2f4f4a" opacity="0.88"/><text x="680" y="237">vrstični osamelec</text>
  </g>
  <text x="60" y="382" font-family="Georgia, serif" font-size="18" fill="#5b4b37">Majhen delež problematičnih celic lahko kontaminira veliko vrstic.</text>
</svg>
